<?xml version="1.0" encoding="UTF-8" standalone="no"?>
<!-- Generator: Adobe Illustrator 17.0.1, SVG Export Plug-In . SVG Version: 6.00 Build 0)  -->

<svg
   version="1.1"
   x="0px"
   y="0px"
   width="86px"
   height="86px"
   viewBox="0 0 86 86"
   enable-background="new 0 0 86 86"
   xml:space="preserve"
   id="svg19"
   sodipodi:docname="cover-background.svg"
   inkscape:version="1.1 (c68e22c387, 2021-05-23)"
   xmlns:inkscape="http://www.inkscape.org/namespaces/inkscape"
   xmlns:sodipodi="http://sodipodi.sourceforge.net/DTD/sodipodi-0.dtd"
   xmlns="http://www.w3.org/2000/svg"
   xmlns:svg="http://www.w3.org/2000/svg"><g
   id="g1039"
   style="fill:#ffffff"><g
     id="g3503"
     transform="translate(0.5)"
     style="fill:#ffffff"><g
       id="path1423"
       style="fill:#ffffff"><path
         style="color:#000000;fill:#ffffff;stroke-width:2;-inkscape-stroke:none"
         d="m 32,11 c 0,21.334267 0,42.667601 0,64"
         id="path1671" /><path
         style="color:#000000;fill:#ffffff;-inkscape-stroke:none"
         d="m 31,11 v 64 h 2 V 11 Z"
         id="path1673" /></g><g
       id="path1629"
       transform="translate(0.13785762)"
       style="fill:#ffffff"><path
         style="color:#000000;fill:#ffffff;stroke-width:2;-inkscape-stroke:none"
         d="m 53,11 c 0,21.334267 0,42.667601 0,64"
         id="path1679" /><path
         style="color:#000000;fill:#ffffff;-inkscape-stroke:none"
         d="m 52,11 v 64 h 2 V 11 Z"
         id="path1681" /></g><g
       id="path1639"
       transform="rotate(90,42.5,43)"
       style="fill:#ffffff"><path
         style="color:#000000;fill:#ffffff;stroke-width:2;-inkscape-stroke:none"
         d="m 32,11 c 0,21.334267 0,42.667601 0,64"
         id="path1655" /><path
         style="color:#000000;fill:#ffffff;-inkscape-stroke:none"
         d="m 31,11 v 64 h 2 V 11 Z"
         id="path1657" /></g><g
       id="path1641"
       transform="rotate(90,42.5,43)"
       style="fill:#ffffff"><path
         style="color:#000000;fill:#ffffff;stroke-width:2;-inkscape-stroke:none"
         d="m 53,11 c 0,21.334267 0,42.667601 0,64"
         id="path1663" /><path
         style="color:#000000;fill:#ffffff;-inkscape-stroke:none"
         d="m 52,11 v 64 h 2 V 11 Z"
         id="path1665" /></g></g><g
     aria-label="1"
     id="text48393"
     style="font-weight:bold;font-size:18.6667px;font-family:'Liberation Serif';-inkscape-font-specification:'Liberation Serif Bold';fill:#ffffff"><path
       style="color:#000000;-inkscape-font-specification:'Liberation Serif Bold';-inkscape-stroke:none;fill:#ffffff"
       d="m 22.812503,26.658863 2.123702,0.21875 v 0.783856 h -6.872408 v -0.783856 l 2.114587,-0.21875 v -9.214861 l -2.105473,0.69271 V 17.361971 L 21.51823,15.33853 h 1.294273 z"
       id="path94403" /></g><g
     aria-label="7"
     id="text76609"
     style="font-weight:bold;font-size:18.6667px;line-height:1.25;font-family:'Liberation Serif';-inkscape-font-specification:'Liberation Serif Bold';fill:#ffffff"><path
       d="m 61.387363,18.879553 h -0.79297 v -3.490892 h 7.811212 v 0.720054 L 63.656898,27.61134 h -2.178389 l 5.149749,-10.190123 h -4.821623 z"
       id="path94487"
       style="fill:#ffffff" /></g><g
     aria-label="9"
     id="text76613"
     style="font-weight:bold;font-size:18.6667px;line-height:1.25;font-family:'Liberation Serif';-inkscape-font-specification:'Liberation Serif Bold';fill:#ffffff"><path
       d="m 60.425773,40.593747 q 0,-1.859378 1.066408,-2.861984 1.066409,-1.002606 2.962245,-1.002606 2.141931,0 3.126308,1.503909 0.993491,1.503909 0.993491,4.712248 0,2.0599 -0.583334,3.472663 -0.57422,1.412763 -1.658857,2.132816 -1.084637,0.720053 -2.606776,0.720053 -1.513023,0 -2.83464,-0.391927 v -2.779953 h 0.79297 l 0.391928,1.768232 q 0.319011,0.227865 0.756512,0.355469 0.446615,0.127605 0.856772,0.127605 0.984377,0 1.531253,-1.111981 0.55599,-1.121096 0.647136,-3.235683 -0.947918,0.33724 -1.886722,0.33724 -1.649742,0 -2.606775,-0.984377 -0.947919,-0.984377 -0.947919,-2.761724 z m 2.679693,0.03646 q 0,2.606775 1.421877,2.606775 0.69271,0 1.36719,-0.164062 v -0.127605 q 0,-2.634119 -0.319011,-3.964851 -0.309896,-1.330731 -1.102866,-1.330731 -1.36719,0 -1.36719,2.980474 z"
       id="path94509"
       style="fill:#ffffff" /></g><g
     aria-label="8"
     id="text76617"
     style="font-weight:bold;font-size:18.6667px;line-height:1.25;font-family:'Liberation Serif';-inkscape-font-specification:'Liberation Serif Bold';fill:#ffffff"><path
       d="m 46.764329,61.401038 q 0,1.002606 -0.492188,1.713545 -0.492189,0.701824 -1.385419,1.020835 1.048179,0.391927 1.604169,1.212241 0.555991,0.820314 0.555991,1.968754 0,1.731774 -1.002606,2.606776 -0.993492,0.875001 -3.098964,0.875001 -3.992195,0 -3.992195,-3.481777 0,-1.166669 0.565105,-1.986983 0.565106,-0.820314 1.567712,-1.194012 -0.884117,-0.337241 -1.36719,-1.039065 -0.483074,-0.701824 -0.483074,-1.722659 0,-1.494794 0.984377,-2.333338 0.993491,-0.838543 2.798182,-0.838543 1.768232,0 2.752609,0.856773 0.993491,0.847657 0.993491,2.342452 z m -2.305994,5.915375 q 0,-1.403648 -0.364584,-2.04167 -0.364583,-0.638022 -1.148439,-0.638022 -0.747397,0 -1.075523,0.619792 -0.328125,0.619793 -0.328125,2.0599 0,1.412763 0.328125,1.986983 0.33724,0.57422 1.075523,0.57422 0.783856,0 1.148439,-0.601564 0.364584,-0.601564 0.364584,-1.959639 z m -0.282552,-5.915375 q 0,-1.194013 -0.300782,-1.731774 -0.300782,-0.546876 -0.91146,-0.546876 -0.583334,0 -0.865887,0.537761 -0.273438,0.537762 -0.273438,1.740889 0,1.239585 0.273438,1.750003 0.273438,0.510417 0.865887,0.510417 0.628908,0 0.920575,-0.519532 0.291667,-0.528646 0.291667,-1.740888 z"
       id="path94531"
       style="fill:#ffffff" /></g></g><defs
   id="defs23"><inkscape:path-effect
   effect="bspline"
   id="path-effect1651"
   is_visible="true"
   lpeversion="1"
   weight="33.333333"
   steps="2"
   helper_size="0"
   apply_no_weight="true"
   apply_with_weight="true"
   only_selected="false" /><inkscape:path-effect
   effect="bspline"
   id="path-effect1647"
   is_visible="true"
   lpeversion="1"
   weight="33.333333"
   steps="2"
   helper_size="0"
   apply_no_weight="true"
   apply_with_weight="true"
   only_selected="false" /><inkscape:path-effect
   effect="bspline"
   id="path-effect1633"
   is_visible="true"
   lpeversion="1"
   weight="33.333333"
   steps="2"
   helper_size="0"
   apply_no_weight="true"
   apply_with_weight="true"
   only_selected="false" /><inkscape:path-effect
   effect="bspline"
   id="path-effect1547"
   is_visible="true"
   lpeversion="1"
   weight="33.333333"
   steps="2"
   helper_size="0"
   apply_no_weight="true"
   apply_with_weight="true"
   only_selected="false" /><inkscape:path-effect
   effect="bspline"
   id="path-effect1425"
   is_visible="true"
   lpeversion="1"
   weight="33.333333"
   steps="2"
   helper_size="0"
   apply_no_weight="true"
   apply_with_weight="true"
   only_selected="false" />
	
		<radialGradient
   id="SVGID_1_"
   cx="43.2205"
   cy="43.2221"
   r="42.7984"
   gradientTransform="matrix(0.9977,0,0,0.9977,-0.1211,-0.1227)"
   gradientUnits="userSpaceOnUse">
		<stop
   offset="0"
   style="stop-color:#fcfaf6;stop-opacity:1"
   id="stop3" />
		<stop
   offset="1"
   style="stop-color:#bcaaa4;stop-opacity:1"
   id="stop5" />
	</radialGradient>
	
	
	
	
<radialGradient
   id="SVGID_1_-3"
   cx="43.220501"
   cy="43.222099"
   r="42.798401"
   gradientTransform="matrix(0.74769087,0,0,0.74769087,10.684422,10.683222)"
   gradientUnits="userSpaceOnUse"><stop
     offset="0"
     style="stop-color:#f9f4ed;stop-opacity:1"
     id="stop3-6" /><stop
     offset="1"
     style="stop-color:#fcfaf6;stop-opacity:1"
     id="stop5-7" /></radialGradient></defs><sodipodi:namedview
   id="namedview21"
   pagecolor="#ffffff"
   bordercolor="#666666"
   borderopacity="1.0"
   inkscape:pageshadow="2"
   inkscape:pageopacity="0.0"
   inkscape:pagecheckerboard="0"
   showgrid="false"
   showguides="false"
   inkscape:zoom="2.4127907"
   inkscape:cx="90.559036"
   inkscape:cy="91.387952"
   inkscape:window-width="1920"
   inkscape:window-height="1009"
   inkscape:window-x="0"
   inkscape:window-y="0"
   inkscape:window-maximized="1"
   inkscape:current-layer="svg19" />
<g
   id="Layer_2"
   display="none">
</g>

<text
   xml:space="preserve"
   style="font-style:normal;font-variant:normal;font-weight:bold;font-stretch:normal;font-size:40px;line-height:1.25;font-family:Parisienne;-inkscape-font-specification:'Parisienne Bold'"
   x="-38.145824"
   y="-31.646097"
   id="text18610"><tspan
     sodipodi:role="line"
     id="tspan18608"
     x="-38.145824"
     y="-31.646097" /></text><rect
   style="fill:#000000;fill-opacity:0;stroke:none;stroke-width:3;stroke-linecap:round;stroke-linejoin:round;stroke-miterlimit:4;stroke-dasharray:none;stroke-dashoffset:1.5;stroke-opacity:0.468683"
   id="rect93547"
   width="29.173901"
   height="45.266724"
   x="-33.174484"
   y="-34.505188" /></svg>
